# xmcd CD database file
#
# Track frame offsets:
#	150
#	25925
#	48747
#	75657
#	94912
#	113827
#	132912
#	153230
#	170462
#	189400
#	208115
#	221630
#
# Disc length: 3313 seconds
#
# Revision: 5
# Processed by: cddbd v1.4PL0 Copyright (c) Steve Scherf et al.
# Submitted via: CDex 1.40Beta8
#
DISCID=a40cef0c
DTITLE=Loona - Entre Dos Aguas
DYEAR=1999
DGENRE=Latin
TTITLE0=Pajaro Sin Cielo
TTITLE1=Salvador Dali
TTITLE2=Entre Dos Aguas
TTITLE3=La Vida Es Una Flor
TTITLE4=Escuchame (Ai,Ai,Ai)
TTITLE5=It4s Love Para Siempre
TTITLE6=Salvador Dali (Dance Remix)
TTITLE7=Tell Me Why
TTITLE8=It4s Alright
TTITLE9=Navidad (Chrismas)
TTITLE10=Buenas Noches (Good Night)
TTITLE11=Entre Dos Aguas (Instrumental)
EXTD=YEAR: 1999 ID3G: 86
EXTT0=
EXTT1=
EXTT2=
EXTT3=
EXTT4=
EXTT5=
EXTT6=
EXTT7=
EXTT8=
EXTT9=
EXTT10=
EXTT11=
PLAYORDER=
